<?xml version="1.0" standalone="no"?>
<!DOCTYPE svg PUBLIC "-//W3C//DTD SVG 20010904//EN"
 "http://www.w3.org/TR/2001/REC-SVG-20010904/DTD/svg10.dtd">
<svg version="1.0" xmlns="http://www.w3.org/2000/svg"
 width="300.000000pt" height="328.000000pt" viewBox="0 0 300.000000 328.000000"
 preserveAspectRatio="xMidYMid meet">
<metadata>
Created by potrace 1.10, written by Peter Selinger 2001-2011
</metadata>
<g transform="translate(0.000000,328.000000) scale(0.100000,-0.100000)"
fill="#000000" stroke="none">
<path d="M1520 3181 c0 -6 10 -11 23 -11 27 0 72 -29 94 -59 20 -30 13 -34
-33 -18 -21 8 -76 17 -121 21 -45 3 -100 13 -122 21 -45 15 -54 6 -18 -18 l22
-15 -26 -7 c-41 -10 -109 13 -147 51 -19 19 -37 33 -39 30 -8 -7 37 -96 48
-96 5 0 9 -4 9 -9 0 -5 -17 -11 -37 -15 -21 -3 -55 -20 -77 -36 -31 -24 -42
-27 -58 -19 -29 16 -32 6 -9 -37 11 -21 19 -40 17 -42 -2 -2 -18 4 -35 12 -16
9 -38 17 -48 17 -10 1 -2 5 17 9 31 7 29 8 -22 9 -32 0 -58 -3 -58 -7 0 -4 19
-17 43 -29 l42 -20 -65 -31 c-36 -16 -74 -37 -85 -46 -19 -15 -17 -15 30 -13
28 2 56 7 63 11 31 19 20 -6 -17 -40 -47 -41 -48 -51 -5 -30 16 7 41 17 57 20
23 6 27 3 27 -16 0 -13 9 -37 19 -54 l19 -31 -124 -61 c-68 -34 -127 -62 -131
-62 -17 0 69 56 141 91 43 21 81 41 83 43 11 10 -46 -8 -105 -35 -75 -33 -85
-24 -51 43 12 23 22 45 21 48 0 3 9 21 21 40 19 31 19 33 2 20 -26 -21 -75
-129 -75 -165 0 -22 -11 -40 -40 -68 -22 -20 -40 -42 -40 -47 0 -5 21 0 46 11
l46 19 -7 -22 c-13 -42 -18 -178 -6 -178 6 0 11 9 11 19 0 11 3 28 6 38 5 15
4 15 -5 3 -15 -20 -14 2 1 35 6 14 15 25 20 25 5 0 20 12 33 28 22 26 28 27
134 32 67 3 110 1 108 -4 -8 -22 -123 -76 -164 -76 -53 0 -80 9 -61 21 10 7
10 9 0 9 -6 0 -22 -11 -34 -25 -28 -32 -26 -64 10 -205 22 -86 28 -99 30 -70
4 38 47 100 96 139 17 14 25 18 19 11 -7 -8 -13 -22 -13 -31 0 -10 -17 -31
-37 -46 -51 -37 -53 -41 -53 -95 0 -43 -2 -47 -27 -50 -43 -5 -65 -46 -71
-132 -4 -70 -2 -81 27 -141 35 -72 88 -122 138 -131 28 -5 34 -12 43 -46 6
-21 8 -49 4 -61 -6 -19 -5 -20 10 -8 14 12 16 10 16 -18 0 -19 4 -30 10 -26 6
3 10 -5 10 -18 0 -14 7 -27 15 -31 8 -3 15 -12 15 -20 0 -10 6 -13 15 -10 8 4
15 1 15 -6 0 -6 7 -18 15 -26 10 -11 15 -36 15 -78 0 -73 -17 -96 -69 -96 -34
0 -80 -21 -171 -76 -30 -18 -140 -68 -245 -110 -104 -42 -226 -93 -270 -114
l-81 -37 -42 -81 c-56 -107 -105 -235 -152 -399 -21 -74 -46 -143 -55 -153
-15 -16 -45 -107 -45 -136 0 -6 16 -22 35 -35 33 -22 35 -27 30 -59 -3 -19 -8
-43 -11 -52 -3 -10 -1 -18 5 -18 6 0 14 18 17 40 6 36 24 67 24 41 0 -5 8 -12
17 -14 17 -4 17 -5 1 -6 -10 0 -18 -7 -18 -15 0 -8 -3 -21 -6 -30 -3 -9 -1
-16 5 -16 6 0 11 11 11 25 0 20 5 25 24 25 13 0 54 -11 90 -25 37 -14 83 -25
104 -24 33 0 31 2 -29 19 -72 21 -208 87 -252 123 -28 23 -28 25 -16 73 7 27
14 51 15 53 2 2 22 -10 45 -28 50 -40 181 -103 308 -147 53 -18 86 -33 74 -33
-13 -1 -23 -5 -23 -11 0 -13 6 -13 32 1 28 15 68 3 68 -21 0 -19 17 -36 27
-26 17 16 -71 367 -112 445 -16 31 -9 81 12 81 8 0 11 5 8 10 -3 6 -15 10 -26
10 -13 0 -19 7 -19 24 0 13 -7 43 -15 66 -18 50 -19 64 -5 55 6 -3 10 -1 10 4
0 6 -8 11 -18 11 -13 0 -22 17 -36 72 -13 51 -15 73 -7 76 17 6 13 22 -5 22
-24 0 -13 -74 31 -207 54 -162 57 -174 52 -179 -7 -7 -46 102 -89 251 -22 77
-42 147 -45 156 -5 18 103 71 344 167 184 74 238 99 254 118 18 22 30 16 23
-11 -7 -26 11 -114 31 -155 7 -14 15 -37 19 -52 5 -22 3 -28 -11 -28 -14 0
-14 -3 -5 -12 10 -10 15 -10 21 1 6 9 11 2 15 -23 4 -20 20 -66 36 -102 17
-36 30 -70 30 -75 0 -6 18 -46 39 -89 23 -47 37 -88 34 -100 -3 -11 0 -20 6
-20 6 0 11 5 11 10 0 6 7 10 16 10 8 0 12 5 9 10 -4 6 -11 8 -16 5 -5 -4 -9 0
-9 7 0 8 -9 30 -19 51 -10 20 -22 49 -26 64 -3 15 -10 30 -15 33 -8 5 -60 144
-60 161 0 6 5 7 10 4 6 -3 10 -1 10 4 0 6 -7 11 -15 11 -13 0 -45 47 -45 67 0
4 24 -15 53 -43 83 -80 146 -126 175 -129 15 -1 54 -10 87 -19 61 -17 291 -21
300 -6 3 4 31 17 63 29 64 24 209 127 229 163 18 34 16 6 -6 -59 -26 -76 -52
-172 -56 -203 -4 -40 -4 -40 -19 -40 -9 0 -13 -10 -12 -25 0 -14 2 -25 2 -25
1 0 14 18 29 40 17 24 25 47 22 60 -3 11 -1 20 4 20 5 0 9 12 9 27 0 27 28
126 81 288 16 50 29 105 29 123 0 44 15 38 65 -25 22 -27 49 -56 59 -63 10 -6
1 10 -20 36 -21 26 -32 45 -24 42 46 -19 414 -180 463 -203 l58 -27 -5 -42
c-3 -22 -20 -93 -37 -156 -53 -200 -61 -223 -70 -209 -6 11 -9 9 -9 -7 0 -11
-18 -74 -40 -140 l-40 -119 6 73 c5 52 3 72 -5 72 -9 0 -11 -32 -10 -112 1
-63 -5 -150 -14 -195 -12 -70 -12 -83 -1 -83 8 0 14 10 14 24 0 26 41 49 48
27 5 -14 32 -15 32 -1 0 6 -6 10 -12 10 -7 0 34 16 91 35 127 43 258 107 310
151 l38 33 12 -55 c12 -53 12 -57 -11 -81 -36 -38 -97 -71 -205 -108 -73 -25
-90 -34 -66 -34 18 -1 63 10 100 24 83 32 137 31 141 -2 2 -13 8 -23 13 -23 7
0 8 20 4 55 -4 30 -3 55 1 55 5 0 22 10 38 23 l28 23 -21 72 c-14 44 -27 72
-36 72 -8 0 -20 23 -30 58 -46 162 -113 343 -163 444 -68 134 -50 122 -372
259 -118 50 -263 118 -321 150 -62 35 -118 59 -135 59 -16 0 -40 7 -52 16 -19
13 -22 24 -22 86 0 63 3 73 25 94 14 13 25 27 25 32 0 6 7 12 15 16 8 3 15 14
15 25 0 14 5 19 15 15 11 -5 14 0 13 17 -2 15 2 23 10 22 7 -2 12 9 13 30 2
61 12 78 54 92 59 20 131 102 151 172 30 104 5 210 -54 228 -27 8 -32 14 -28
30 18 74 46 226 46 255 l1 35 24 -27 c33 -38 39 -21 11 29 -20 35 -23 50 -18
112 4 65 2 77 -27 136 -25 49 -41 70 -69 84 -33 17 -34 19 -16 28 10 6 34 14
52 18 53 11 38 28 -21 23 l-53 -4 1 52 c0 59 -20 94 -75 132 -48 32 -61 27
-18 -8 32 -26 58 -77 58 -112 0 -19 -18 -6 -24 17 -11 41 -62 91 -126 119 -35
16 -70 41 -85 60 -14 18 -47 45 -74 59 -54 30 -141 47 -141 28z m200 -98 c42
-48 80 -112 80 -135 0 -7 -15 5 -32 27 -18 22 -32 43 -30 48 1 5 -2 5 -8 2 -6
-4 -9 -13 -6 -20 2 -7 -26 2 -63 21 -52 26 -77 33 -102 29 -28 -4 -30 -3 -14
5 15 8 9 9 -25 4 -34 -4 -41 -3 -30 6 12 8 9 9 -12 4 -16 -3 -28 -2 -28 4 0 5
-16 13 -36 17 -20 3 -34 8 -31 11 7 7 200 -24 247 -41 24 -9 52 -23 63 -32 15
-15 20 -15 27 -3 11 17 -16 57 -68 101 -36 30 -36 31 -6 15 18 -8 51 -37 74
-63z m-400 -11 c30 -6 96 -16 145 -22 141 -17 248 -53 302 -102 28 -26 47 -14
39 24 -4 21 -2 27 7 23 6 -4 4 0 -5 8 -27 22 -21 29 10 13 43 -22 90 -94 103
-156 l7 -35 1 35 c0 20 -8 54 -19 75 -19 39 -19 40 0 17 33 -40 43 -96 25
-133 -9 -17 -12 -28 -6 -24 14 8 42 62 52 100 7 24 8 20 5 -18 -2 -32 -11 -56
-25 -71 -12 -12 -18 -26 -14 -30 4 -4 0 -4 -9 -1 -19 8 -48 48 -48 67 0 15
-57 138 -64 138 -3 0 9 -30 25 -66 17 -36 28 -68 25 -71 -2 -3 6 -25 20 -50
41 -78 28 -140 -41 -195 -19 -15 -44 -23 -74 -24 l-44 -2 36 32 c77 67 89 166
30 249 -35 48 -116 95 -178 103 -33 4 -27 1 28 -19 100 -35 177 -120 177 -197
0 -79 -91 -174 -158 -165 -19 2 -43 0 -53 -5 -15 -9 -15 -5 4 40 38 90 -2 154
-127 205 -51 21 -74 24 -180 23 l-121 0 100 -14 c94 -12 178 -36 200 -55 14
-13 27 -11 19 4 -4 6 -4 9 0 5 4 -3 8 -10 8 -15 0 -4 15 -25 34 -46 27 -29 34
-46 35 -80 1 -40 1 -41 10 -12 11 39 2 73 -33 118 -34 43 -24 50 14 10 39 -41
49 -74 36 -120 -10 -39 -43 -83 -62 -83 -7 0 -10 20 -8 54 4 51 1 57 -34 96
-51 56 -97 78 -216 100 -60 12 -118 30 -143 45 -45 26 -85 69 -85 90 0 7 -7
18 -15 25 -24 20 -17 33 7 16 31 -22 197 -21 284 0 89 23 74 28 -26 10 -113
-22 -137 -20 -80 7 39 18 61 21 169 19 68 -1 122 0 120 2 -2 2 -38 7 -79 10
-112 10 -215 44 -235 77 -4 6 6 4 21 -4 16 -8 54 -19 84 -25z m389 -13 c6 -11
7 -19 3 -19 -9 0 -33 25 -47 48 -12 21 30 -7 44 -29z m-514 -18 c-16 -4 -45
-15 -62 -25 -18 -9 -33 -14 -33 -11 0 10 76 44 100 44 23 -1 22 -2 -5 -8z m38
-38 c-104 -38 -104 -38 -97 -20 3 9 9 16 12 15 4 -1 21 4 37 11 59 25 69 28
92 23 18 -3 9 -10 -44 -29z m-136 -132 l43 -38 -37 -6 c-41 -7 -53 3 -53 41 0
19 -2 21 -14 10 -8 -7 -11 -15 -7 -18 4 -3 7 -27 7 -55 -1 -63 33 -113 108
-155 75 -43 79 -37 7 10 -50 33 -67 50 -86 93 -14 28 -24 59 -24 67 0 11 2 11
6 2 4 -9 20 -11 61 -7 32 4 68 2 82 -4 22 -8 18 -10 -30 -11 -39 -1 -49 -4
-35 -9 11 -5 49 -7 85 -6 l65 3 -40 -19 c-64 -30 -103 -34 -125 -14 -11 10
-20 14 -20 9 -1 -5 -7 2 -15 16 -19 33 -19 17 -1 -19 31 -59 154 -139 241
-156 l30 -6 -30 15 c-36 17 -21 20 24 5 24 -9 29 -14 19 -20 -9 -6 -5 -9 13
-9 15 0 37 -9 50 -21 21 -18 21 -20 4 -14 -70 26 -186 57 -222 60 -100 9 -187
78 -198 157 -3 24 -4 56 -3 73 2 23 -1 30 -17 33 -17 3 -18 1 -5 -8 13 -10 13
-11 -2 -6 -10 3 -36 -1 -59 -9 -23 -8 -44 -15 -48 -15 -24 1 141 69 169 69 8
0 34 -17 57 -38z m-107 -46 c0 -16 -27 -32 -37 -21 -7 7 16 36 28 36 5 0 9 -7
9 -15z m470 -15 c22 -11 40 -23 40 -26 0 -2 -10 1 -22 7 -13 7 -41 18 -63 25
-28 9 -33 13 -17 13 12 1 41 -8 62 -19z m-47 -58 c47 -21 95 -66 108 -100 13
-33 11 -96 -3 -110 -8 -8 -18 0 -39 33 -16 25 -48 57 -72 72 -24 16 -42 33
-40 40 2 6 -4 10 -14 9 -25 -4 -166 24 -177 35 -6 6 -3 9 10 9 10 0 37 9 59
20 47 23 105 20 168 -8z m628 -9 c13 -14 17 -23 9 -19 -8 4 1 -6 20 -23 24
-22 29 -31 18 -31 -9 0 -20 4 -23 10 -3 5 -16 15 -28 21 -15 8 -10 -1 15 -27
35 -37 68 -99 68 -126 0 -7 -11 9 -24 35 -31 64 -62 96 -114 119 -69 31 -67
67 4 68 20 0 38 -9 55 -27z m-887 -23 c16 -6 64 -20 105 -31 91 -25 168 -66
200 -109 31 -43 22 -46 -25 -9 -51 41 -135 80 -178 82 -19 1 -32 5 -30 8 2 4
-7 10 -21 13 -38 10 -94 46 -107 70 -10 20 -10 20 8 4 10 -9 32 -22 48 -28z
m890 -81 c37 -43 59 -88 53 -109 -2 -9 0 -25 5 -34 9 -15 4 -17 -39 -15 l-48
3 -2 68 c-2 63 -20 119 -42 132 -6 4 -6 -8 0 -29 28 -100 -63 -192 -136 -137
l-23 17 46 15 c52 17 92 65 91 109 0 21 -3 18 -17 -18 -19 -50 -51 -77 -102
-86 -35 -6 -35 -6 10 18 25 13 55 39 67 58 42 66 50 71 82 55 16 -9 41 -29 55
-47z m-968 6 c21 -14 48 -28 61 -31 38 -10 26 -22 -33 -34 -30 -7 -54 -14 -51
-16 3 -3 35 2 71 11 77 17 121 18 191 1 48 -11 45 -12 -75 -14 -69 -1 -159 -3
-200 -4 -41 -2 -97 4 -123 11 l-48 14 78 43 c43 24 81 43 85 43 4 1 24 -10 44
-24z m899 -192 c-14 -13 -34 -23 -43 -23 -12 0 -8 7 14 25 17 13 34 35 37 47
5 19 2 18 -18 -9 -31 -39 -71 -49 -119 -29 -46 19 -46 27 0 15 55 -16 103 13
129 79 l20 51 3 -67 c3 -62 1 -69 -23 -89z m-1060 97 c-4 -6 -15 -8 -25 -5
-12 4 -26 -4 -44 -27 -28 -36 -37 -18 -10 20 11 16 25 22 50 22 22 0 33 -4 29
-10z m845 -26 c8 -31 71 -81 112 -89 35 -7 61 -36 38 -43 -7 -3 -3 -13 9 -26
12 -13 23 -40 25 -62 2 -21 11 -61 20 -89 8 -27 14 -50 13 -52 -2 -1 -32 4
-67 11 -36 6 -111 11 -167 11 -92 -2 -106 -5 -142 -28 -34 -23 -43 -25 -74
-15 -25 8 -47 8 -77 0 -37 -9 -45 -8 -77 14 -20 13 -43 24 -52 25 -9 0 -56 2
-106 3 -82 3 -105 0 -187 -18 -34 -8 -36 8 -13 75 9 26 12 45 6 47 -11 4 14
69 36 94 14 15 13 17 -11 14 -28 -3 -41 -12 -41 -28 0 -6 -19 -26 -42 -45 -28
-23 -43 -31 -43 -21 0 21 89 111 104 105 6 -3 31 22 55 54 26 35 54 62 70 67
45 12 252 6 301 -10 40 -13 51 -13 85 -1 22 8 65 17 95 20 30 2 57 7 60 9 2 3
18 4 34 2 21 -2 32 -10 36 -24z m52 0 c21 -15 36 -29 34 -32 -9 -9 -67 21 -77
39 -13 26 -2 24 43 -7z m-772 -75 c-19 -17 -55 -49 -79 -72 -36 -34 -43 -38
-38 -20 3 13 -1 27 -9 34 -8 6 -14 20 -14 30 0 38 -19 18 -26 -27 -4 -27 -10
-42 -15 -37 -6 6 -6 27 -1 49 l8 39 64 1 c36 0 81 8 100 17 49 22 50 20 10
-14z m1056 5 c-11 -8 -28 -14 -37 -14 -10 0 -21 -5 -25 -12 -5 -8 0 -9 17 -4
38 12 48 12 47 1 0 -5 -4 -9 -10 -7 -5 1 -7 -6 -3 -18 10 -32 -5 -108 -21
-106 -32 5 -134 96 -134 120 0 3 11 1 25 -4 19 -7 23 -6 18 5 -3 9 1 15 9 15
8 0 25 -23 38 -51 14 -28 26 -46 28 -41 2 6 -8 34 -22 63 -15 29 -26 56 -26
60 0 4 26 8 58 8 52 0 55 -2 38 -15z m-1196 -109 c-5 -22 -10 -58 -11 -80 l-1
-40 -9 50 c-9 51 -5 80 14 103 15 19 17 11 7 -33z m1125 -49 c43 -41 56 -75
25 -68 -8 2 -10 -3 -6 -13 3 -8 3 -29 0 -45 -5 -25 -9 -28 -25 -20 -10 6 -16
16 -13 23 2 7 -4 29 -14 49 -16 31 -17 35 -3 30 13 -4 13 -2 -2 16 -11 11 -16
26 -12 32 4 6 1 17 -5 25 -27 32 10 12 55 -29z m-1040 -60 c-9 -14 -15 -30
-14 -38 3 -26 -1 -36 -21 -41 -17 -4 -20 0 -20 28 0 24 7 39 26 54 36 28 48
26 29 -3z m331 -91 c17 -7 41 -25 53 -41 20 -25 22 -38 19 -91 -4 -70 -23
-103 -79 -141 -28 -20 -44 -23 -92 -20 -63 5 -98 25 -134 77 -41 60 -39 167 3
202 44 37 159 44 230 14z m541 0 c49 -21 66 -55 61 -125 -5 -68 -39 -122 -99
-153 -46 -24 -125 -19 -168 12 -71 51 -95 171 -46 230 48 57 161 73 252 36z
m-810 -3 c8 -5 6 -16 -6 -41 -11 -21 -21 -30 -25 -22 -4 6 0 18 8 27 25 24 19
36 -16 32 -24 -2 -33 -8 -32 -20 1 -10 -2 -18 -7 -18 -5 0 -9 4 -9 9 0 5 -3
16 -6 25 -5 13 2 16 37 16 24 0 49 -4 56 -8z m-110 -71 c15 -22 23 -49 23 -75
l0 -41 -33 50 c-24 37 -39 51 -60 53 -15 2 -27 -1 -27 -7 0 -6 5 -11 11 -11 6
0 8 -7 5 -16 -15 -39 -18 -64 -7 -64 6 0 11 10 11 23 0 12 5 29 10 37 8 13 12
12 31 -7 l22 -22 -23 -45 c-24 -43 -24 -46 -8 -80 17 -34 63 -74 74 -64 2 3
-11 21 -31 41 -37 37 -44 70 -22 101 11 15 17 16 33 6 15 -9 24 -36 37 -109
23 -129 24 -125 -20 -102 -66 33 -116 100 -133 176 -21 93 14 200 63 193 12
-2 32 -18 44 -37z m1183 14 l23 -25 -24 0 c-27 0 -66 -35 -93 -85 l-17 -30 5
53 c6 58 37 112 65 112 10 0 28 -11 41 -25z m-599 5 c15 -8 19 -22 19 -58 0
-54 35 -135 71 -169 74 -68 188 -68 265 -1 44 39 62 74 78 151 17 85 34 84 25
0 -11 -108 -51 -268 -63 -256 -5 4 -6 -4 -2 -19 5 -21 3 -26 -8 -22 -10 4 -12
-2 -9 -23 5 -27 5 -27 -11 -8 -13 16 -15 17 -10 3 3 -10 1 -18 -5 -18 -6 0
-11 -12 -12 -27 0 -16 -3 -22 -6 -15 -8 21 -21 13 -15 -10 5 -21 4 -22 -11 -9
-15 12 -17 10 -17 -15 0 -27 -1 -27 -15 -8 -8 10 -15 27 -15 36 0 36 -23 66
-61 81 -22 9 -39 11 -39 6 0 -6 -5 -7 -11 -3 -21 13 -79 22 -79 13 0 -6 -7 -6
-18 0 -10 5 -34 6 -53 3 -19 -4 -50 -5 -69 -2 -19 3 -43 2 -54 -3 -13 -6 -16
-6 -12 2 8 12 -47 5 -76 -11 -12 -6 -18 -5 -18 2 0 6 -18 1 -39 -10 -28 -14
-42 -29 -50 -52 -15 -48 -25 -114 -16 -106 11 11 44 -46 41 -69 -2 -10 -1 -12
1 -5 7 19 23 14 33 -10 5 -13 9 -17 9 -10 1 18 21 15 21 -4 0 -8 4 -13 9 -9 5
3 17 -5 25 -17 9 -12 16 -16 16 -9 0 8 6 11 17 7 25 -10 83 13 83 32 0 15 2
15 10 2 7 -12 11 -8 16 16 5 24 10 30 24 27 10 -3 21 -15 24 -27 7 -29 61 -59
91 -52 14 4 25 1 28 -7 3 -7 6 -5 6 6 1 9 8 17 16 17 9 0 18 7 22 16 3 9 13
14 24 11 12 -3 19 0 19 8 0 8 6 18 13 22 8 4 22 23 32 41 20 33 34 41 36 20 0
-10 2 -10 6 0 2 6 9 10 14 6 5 -3 9 2 9 11 0 9 4 14 8 11 5 -3 15 6 22 19 17
31 30 32 30 3 0 -13 -16 -41 -35 -62 -19 -22 -38 -49 -41 -60 -7 -21 -7 -21
-15 -1 -7 19 -8 19 -8 -2 -2 -50 -26 -72 -34 -30 -3 14 -4 12 -2 -6 1 -22 -6
-34 -34 -55 -20 -15 -42 -34 -49 -42 -11 -13 -12 -10 -7 15 l6 30 -20 -31
c-27 -44 -35 -48 -107 -58 -11 -1 -25 -5 -31 -9 -10 -6 -47 -3 -93 8 -14 4
-32 7 -40 7 -8 1 -26 9 -39 19 -13 10 -27 16 -32 14 -4 -3 -16 6 -25 20 -9 13
-20 23 -24 20 -4 -3 -15 12 -23 33 -11 25 -16 30 -17 17 -1 -19 -2 -19 -20 4
-11 13 -20 30 -20 38 0 8 -4 11 -10 8 -5 -3 -10 -3 -10 2 0 4 -12 22 -28 38
-35 39 -52 70 -52 92 1 16 3 16 18 -3 20 -24 57 -46 64 -38 3 2 3 16 0 29 -3
20 -7 23 -18 14 -11 -9 -14 -6 -14 17 0 22 -3 26 -10 14 -7 -12 -10 -8 -10 15
-1 29 -1 29 -17 10 -15 -19 -15 -19 -9 9 6 25 5 28 -7 18 -12 -10 -13 -8 -9
14 3 18 1 25 -6 20 -6 -4 -13 10 -17 34 -4 22 -11 40 -16 40 -6 0 -8 3 -5 8 2
4 -2 34 -9 67 -7 33 -16 94 -19 135 -6 68 -5 73 9 56 8 -11 15 -34 15 -50 0
-37 33 -112 63 -144 29 -31 63 -48 113 -57 125 -20 228 77 236 223 3 57 39 78
89 52z m623 -72 c19 -73 -8 -165 -67 -226 -32 -33 -95 -78 -101 -71 -2 2 -1
21 2 42 3 27 9 37 22 37 10 0 35 15 54 34 42 39 46 74 16 124 l-20 33 24 24
c32 31 62 32 70 3z m-79 -128 c-6 -27 -55 -80 -74 -80 -14 0 14 118 33 139
l20 22 14 -26 c8 -16 11 -38 7 -55z m-458 -250 c60 -1 74 -3 60 -11 -24 -14
-323 -14 -357 -1 l-25 11 25 1 c14 0 51 2 84 3 46 2 62 7 75 23 l16 21 22 -23
c19 -21 31 -24 100 -24z m148 -38 c-3 -8 -5 -23 -5 -33 0 -11 -4 -17 -10 -14
-6 3 -10 -5 -10 -19 0 -28 -15 -43 -23 -24 -3 7 -6 5 -6 -6 -1 -11 -4 -16 -8
-13 -3 4 -17 -5 -30 -19 -13 -14 -23 -20 -24 -12 0 7 -5 2 -10 -11 -8 -19 -12
-21 -24 -11 -12 10 -15 10 -15 -1 -1 -21 -50 39 -50 61 0 10 8 24 18 30 13 8
10 9 -18 5 -55 -9 -93 -9 -115 0 -16 7 -18 6 -7 -6 17 -18 15 -49 -5 -71 -20
-22 -63 -24 -63 -3 0 17 -16 20 -26 4 -4 -7 -13 -1 -24 16 -12 19 -19 23 -23
13 -4 -9 -6 -8 -6 4 -1 11 -6 15 -16 12 -11 -5 -15 1 -15 26 0 18 -4 29 -10
25 -5 -3 -10 0 -10 7 0 7 -3 23 -6 35 -5 17 0 22 26 28 18 4 36 2 44 -4 45
-37 416 -29 416 9 0 5 14 3 30 -3 19 -7 28 -17 25 -25z m-556 -217 c5 3 16 -3
23 -12 17 -23 85 -74 103 -77 7 -1 20 -8 29 -15 8 -7 20 -10 26 -6 6 4 17 1
25 -5 8 -7 21 -10 30 -7 8 4 17 2 20 -3 6 -10 45 -7 65 5 9 5 15 4 18 -3 2 -8
11 -7 28 5 14 8 27 13 31 9 4 -3 15 1 25 11 10 9 21 14 24 10 6 -6 94 57 106
77 4 6 12 11 18 11 6 0 15 7 20 15 7 10 10 -3 10 -45 0 -103 8 -128 47 -153
19 -13 36 -22 38 -20 2 2 -9 12 -26 23 -28 19 -46 51 -35 62 3 3 23 -9 46 -27
34 -27 40 -37 40 -69 0 -45 -39 -127 -79 -165 -25 -24 -38 -28 -107 -32 -97
-6 -143 -18 -178 -45 -33 -26 -26 -38 8 -16 14 9 64 24 113 32 48 8 96 18 106
21 31 10 18 -6 -30 -37 -136 -85 -330 -92 -481 -15 -91 46 -179 162 -197 258
-6 31 -3 36 44 71 50 37 51 37 51 13 0 -15 -12 -33 -36 -51 -43 -33 -39 -42
10 -18 l36 18 0 110 c1 78 4 103 11 87 5 -13 13 -21 18 -17z m-130 -144 c-73
-59 35 -262 180 -339 236 -127 542 -46 651 171 32 65 40 142 18 166 -15 15 -9
13 46 -14 l38 -20 -5 -55 c-7 -76 -40 -142 -109 -215 -63 -68 -163 -127 -252
-151 -79 -21 -231 -18 -310 7 -192 59 -329 202 -343 355 l-5 59 49 27 c56 32
75 36 42 9z m1641 -466 c52 -106 100 -239 145 -398 27 -96 28 -98 9 -118 -25
-28 -193 -112 -210 -105 -8 3 -14 12 -14 19 0 8 -7 20 -15 27 -21 18 -19 3 5
-31 l21 -28 -116 -37 c-64 -20 -118 -34 -121 -32 -13 13 97 243 111 230 4 -4
4 4 0 17 -5 16 -4 21 4 17 12 -8 44 62 37 81 -3 7 -2 13 3 13 5 0 13 26 20 57
13 67 14 83 3 83 -5 0 -14 -26 -21 -57 -7 -32 -17 -66 -23 -77 -7 -14 -6 -21
4 -27 10 -7 10 -9 -2 -9 -10 0 -29 -32 -53 -89 -53 -123 -72 -146 -47 -55 11
39 31 102 45 140 60 159 87 241 90 274 2 19 13 63 24 97 11 34 23 79 27 99 8
43 8 43 74 -91z m-2369 103 c4 -35 11 -64 48 -188 22 -74 54 -171 71 -215 49
-124 100 -276 90 -270 -11 7 -88 167 -96 200 -7 27 -21 41 -31 31 -4 -3 1 -14
10 -24 10 -10 19 -38 21 -61 2 -23 11 -50 19 -59 25 -29 95 -156 101 -184 3
-15 2 -29 -3 -33 -14 -8 -233 69 -328 115 -45 22 -95 52 -111 65 l-29 25 44
156 c48 170 93 294 142 392 30 59 49 77 52 50z"/>
<path d="M1442 2985 c4 -4 49 -8 101 -10 83 -2 104 -7 167 -36 116 -53 182
-147 165 -236 -4 -22 -22 -51 -50 -79 -51 -50 -47 -58 7 -14 21 17 44 49 53
75 16 42 16 47 1 92 -9 27 -18 56 -19 66 -1 9 -6 18 -12 18 -5 1 -26 15 -45
32 -19 16 -64 44 -100 61 -57 27 -77 31 -170 34 -58 2 -102 1 -98 -3z"/>
<path d="M1368 2946 c-32 -13 -59 -22 -60 -21 -2 1 -46 5 -98 8 -56 3 -83 2
-65 -3 17 -4 62 -9 100 -10 l70 -2 -35 -13 c-47 -18 -113 -18 -155 -1 -44 19
-45 14 -1 -13 31 -19 46 -21 222 -18 182 2 191 1 238 -22 92 -45 132 -153 86
-229 -24 -38 -25 -49 -6 -33 11 9 15 9 18 0 2 -7 14 1 27 20 36 50 39 133 7
196 -14 27 -23 51 -21 53 8 8 38 -22 67 -67 31 -50 39 -34 8 17 -24 38 -94 90
-157 115 -47 18 -164 25 -218 11 -42 -10 -28 1 25 19 25 9 36 16 25 16 -11 0
-46 -10 -77 -23z m254 -53 c62 -42 91 -94 96 -168 3 -44 -1 -71 -12 -93 -17
-34 -33 -45 -21 -14 45 106 3 204 -107 252 -47 20 -64 22 -185 18 -121 -3
-130 -2 -96 10 64 22 135 31 211 27 61 -3 81 -9 114 -32z"/>
<path d="M1065 2615 c-5 -2 -31 -6 -57 -10 -27 -3 -48 -10 -48 -14 0 -4 27 -3
60 3 33 5 60 13 60 18 0 4 -1 8 -2 7 -2 0 -7 -2 -13 -4z"/>
<path d="M1111 2258 c-46 -25 -94 -79 -58 -65 59 22 145 25 247 8 58 -10 106
-17 108 -16 1 1 -3 16 -9 33 -13 38 -48 51 -164 59 -71 4 -85 2 -124 -19z"/>
<path d="M1653 2268 c-24 -5 -43 -14 -43 -19 0 -6 -4 -7 -10 -4 -11 7 -37 -42
-27 -52 4 -3 58 2 120 12 103 16 117 17 172 2 33 -8 61 -14 63 -13 7 8 -42 56
-72 70 -38 18 -134 20 -203 4z"/>
<path d="M1160 2129 c-14 -6 -39 -24 -57 -41 l-31 -30 21 -35 c22 -39 71 -73
102 -73 13 0 6 7 -20 19 -73 33 -79 93 -14 127 29 15 30 15 20 -5 -30 -55 6
-121 66 -121 46 0 77 30 76 74 -1 20 1 36 3 36 2 0 11 -15 20 -32 10 -18 19
-28 21 -21 7 20 -27 73 -60 93 -35 22 -105 26 -147 9z m133 -50 c26 -35 13
-79 -27 -92 -23 -8 -32 -5 -52 14 -13 12 -24 32 -24 43 1 19 2 18 15 -5 18
-33 40 -42 66 -29 27 15 24 39 -8 73 -23 24 -25 28 -9 26 10 -2 28 -16 39 -30z"/>
<path d="M1664 2121 c-36 -22 -42 -30 -54 -71 -11 -39 4 -39 20 0 19 45 29 45
23 1 -4 -31 -1 -43 16 -60 25 -25 77 -28 108 -6 26 18 38 67 23 94 -15 28 2
27 37 -3 24 -21 26 -27 18 -52 -7 -19 -25 -37 -55 -51 -24 -13 -36 -23 -27
-23 30 0 75 28 103 65 l27 36 -29 31 c-56 59 -149 76 -210 39z m114 -45 c11
-21 12 -34 3 -52 -29 -65 -112 -47 -110 24 l0 37 12 -35 c10 -30 17 -35 42
-35 40 0 47 36 13 72 l-23 25 25 -4 c15 -2 30 -14 38 -32z m-48 -6 c0 -5 -5
-12 -11 -16 -14 -8 -33 11 -25 25 7 11 36 4 36 -9z"/>
<path d="M1578 1806 c4 -35 4 -36 -26 -30 -23 5 -32 2 -40 -13 -10 -17 -7 -18
26 -15 55 6 76 39 49 76 -12 16 -13 14 -9 -18z"/>
<path d="M1384 1816 c-3 -8 -4 -25 -2 -38 3 -20 10 -23 48 -26 37 -3 43 -1 32
10 -7 7 -25 13 -40 14 -23 1 -27 5 -25 28 2 28 -4 34 -13 12z"/>
<path d="M2101 2020 c0 -8 6 -26 14 -40 13 -23 14 -23 15 -4 0 11 -7 29 -15
40 -11 14 -14 15 -14 4z"/>
<path d="M1189 1285 c-2 -49 -3 -92 -2 -93 1 -2 6 5 11 15 17 32 20 87 7 128
-12 40 -12 39 -16 -50z"/>
<path d="M1745 1252 c-16 -11 -36 -26 -44 -35 -21 -26 -122 -84 -161 -92 -84
-18 -153 0 -240 63 l-35 26 34 -36 c107 -116 279 -100 429 38 61 57 65 65 17
36z"/>
<path d="M1211 966 c2 -2 46 -11 97 -20 52 -9 107 -23 123 -31 16 -9 29 -12
29 -8 -1 15 -49 43 -92 52 -42 10 -166 15 -157 7z"/>
<path d="M2696 710 c4 -19 11 -40 16 -47 5 -7 8 -22 6 -35 -5 -35 -38 -29 -57
9 -17 35 -31 43 -31 18 0 -8 5 -15 10 -15 6 0 10 -16 10 -35 0 -19 5 -35 10
-35 6 0 10 -4 10 -10 0 -5 -7 -7 -15 -4 -9 4 -15 0 -15 -9 0 -8 5 -17 10 -19
7 -2 5 -23 -6 -58 -24 -81 -35 -103 -27 -55 9 60 -4 38 -21 -35 -13 -56 -13
-62 0 -46 27 38 16 -18 -18 -91 -18 -38 -34 -72 -37 -78 -2 -5 4 -3 14 5 10 8
28 38 41 65 25 58 84 287 84 328 0 24 4 27 34 27 19 0 38 5 41 10 3 6 -1 10
-9 10 -11 0 -16 10 -17 28 0 15 -9 45 -20 67 l-19 40 6 -35z"/>
<path d="M2716 483 c-2 -10 -8 -51 -11 -90 -5 -53 -11 -73 -21 -73 -8 0 -14
-4 -14 -10 0 -18 40 -11 41 8 0 9 3 26 5 37 2 11 5 41 7 67 1 28 7 50 15 53 7
3 10 9 7 15 -10 15 -23 12 -29 -7z"/>
<path d="M2547 262 c-15 -26 -48 -75 -73 -109 -25 -35 -42 -63 -37 -63 17 0
152 187 153 213 0 19 -18 2 -43 -41z"/>
<path d="M316 805 c-4 -14 -4 -30 -1 -34 12 -20 13 -80 1 -96 -10 -14 -10 -28
0 -71 6 -29 8 -54 4 -56 -8 -3 16 -158 30 -193 5 -11 11 -32 14 -46 3 -15 17
-46 32 -70 14 -24 23 -35 19 -24 -4 11 -19 49 -32 84 -13 35 -21 66 -19 69 3
3 10 -8 16 -24 36 -93 74 -154 131 -209 55 -53 59 -55 34 -20 -15 22 -40 54
-55 70 -15 17 -44 64 -65 105 -20 41 -42 81 -48 89 -17 20 -16 103 0 97 7 -3
13 -1 13 4 0 6 -6 10 -14 10 -23 0 -25 9 -32 146 -3 71 -11 132 -16 135 -7 4
-6 9 1 13 13 8 15 46 2 46 -5 0 -12 -11 -15 -25z"/>
<path d="M251 668 c-23 -61 -61 -182 -61 -193 0 -7 -9 -41 -20 -76 -11 -34
-19 -67 -17 -73 5 -14 36 56 41 90 2 16 8 40 14 54 5 14 18 45 28 69 l18 45
13 -40 13 -39 -4 42 c-2 22 1 46 7 52 7 7 6 12 -4 16 -10 4 -14 16 -11 40 5
40 -4 46 -17 13z"/>
<path d="M286 415 c3 -27 9 -54 14 -59 7 -7 8 1 4 23 -5 23 -3 36 7 42 11 7
11 9 -3 9 -9 0 -19 8 -21 18 -3 9 -3 -5 -1 -33z"/>
<path d="M892 2732 c-24 -18 -62 -71 -62 -85 0 -5 13 1 28 12 16 11 51 29 78
41 l49 21 -40 -5 -40 -5 40 19 40 19 -35 0 c-19 0 -45 -7 -58 -17z"/>
<path d="M2034 1145 c3 -11 8 -38 12 -60 3 -22 11 -47 16 -55 11 -17 5 31 -8
64 -6 17 -5 17 17 6 23 -12 23 -12 6 6 -10 11 -25 28 -33 39 -15 20 -15 20
-10 0z"/>
<path d="M832 1090 c-36 -34 -62 -50 -80 -50 -25 0 -92 -33 -92 -45 0 -5 50
15 67 28 7 5 20 6 29 3 8 -3 22 1 30 9 9 8 20 15 25 15 11 0 6 -10 -26 -55
-12 -16 -27 -43 -33 -60 -18 -47 -62 -227 -61 -250 1 -20 1 -20 6 0 3 11 10
31 15 45 6 14 12 39 14 55 6 56 32 130 44 127 7 -1 9 5 6 16 -4 12 9 41 36 82
24 35 46 68 49 74 16 30 29 56 27 56 -2 -1 -27 -23 -56 -50z"/>
<path d="M2386 990 c32 -16 60 -27 63 -25 5 6 6 6 -52 33 -70 33 -79 27 -11
-8z"/>
<path d="M566 965 c-33 -13 -67 -31 -75 -40 -20 -20 -9 -16 63 20 27 14 60 25
73 25 14 0 21 4 18 10 -8 14 -12 13 -79 -15z"/>
<path d="M1868 868 c-19 -24 -41 -54 -48 -68 -7 -13 -37 -57 -66 -97 -30 -39
-54 -76 -54 -81 0 -6 -7 -13 -16 -16 -8 -3 -12 -10 -9 -16 7 -11 80 55 80 72
0 5 9 16 20 24 11 8 20 18 20 22 1 4 5 17 9 30 6 18 11 21 21 12 8 -7 15 -7
19 -1 4 5 0 13 -8 18 -12 7 -9 16 15 51 51 74 61 92 56 92 -2 0 -20 -19 -39
-42z"/>
<path d="M671 720 c-2 -3 -4 -27 -7 -54 -2 -34 0 -46 7 -39 6 6 9 30 6 54 -2
24 -5 42 -6 39z"/>
<path d="M2434 652 c-13 -8 -24 -163 -12 -156 5 3 8 -6 8 -20 0 -14 5 -26 10
-26 13 0 13 36 0 60 -8 16 -8 18 5 14 8 -4 15 -1 15 5 0 7 -6 14 -12 16 -8 3
-13 24 -14 51 -1 34 2 44 13 40 7 -3 13 1 13 9 0 16 -9 19 -26 7z"/>
<path d="M644 598 c-4 -6 -3 -13 3 -15 6 -2 5 -21 -4 -55 -7 -29 -13 -63 -13
-75 0 -14 -6 -23 -15 -23 -8 0 -15 -4 -15 -10 0 -5 4 -10 9 -10 11 0 -6 -68
-21 -87 -5 -6 -5 -14 0 -17 5 -3 7 -30 4 -61 -2 -30 0 -55 4 -55 5 0 10 17 10
38 0 20 4 58 8 85 6 37 11 47 27 47 10 0 19 5 19 11 0 6 -7 9 -15 5 -18 -6
-18 -2 -4 44 5 19 12 49 14 65 2 17 7 51 11 78 6 46 -5 63 -22 35z"/>
<path d="M2490 590 c0 -5 4 -10 9 -10 5 0 11 -12 13 -27 3 -25 4 -23 9 10 4
31 2 37 -13 37 -10 0 -18 -4 -18 -10z"/>
<path d="M2343 274 c-2 -53 12 -47 20 9 4 25 2 37 -6 37 -7 0 -13 -18 -14 -46z"/>
<path d="M640 262 c0 -4 4 -12 9 -17 5 -6 11 -26 14 -45 3 -27 4 -23 5 18 2
40 -1 52 -13 52 -8 0 -15 -4 -15 -8z"/>
<path d="M96 204 c-3 -9 -6 -25 -6 -37 0 -27 16 -11 25 26 8 29 -8 39 -19 11z"/>
<path d="M640 140 c0 -5 4 -10 8 -10 5 0 13 -10 18 -22 6 -13 9 -17 7 -10 -2
8 -3 22 -3 33 0 10 -7 19 -15 19 -8 0 -15 -4 -15 -10z"/>
<path d="M1390 75 c0 -16 -38 -18 -470 -17 -113 0 -195 -2 -182 -5 12 -2 22
-11 22 -19 0 -8 5 -14 10 -14 6 0 10 7 10 15 0 11 12 15 50 15 38 0 50 -4 50
-15 0 -8 5 -15 10 -15 6 0 10 7 10 15 0 11 12 15 50 15 38 0 50 -4 50 -15 0
-8 5 -15 10 -15 6 0 10 7 10 15 0 12 8 14 43 9 23 -4 44 -11 45 -16 6 -14 22
-9 22 7 0 11 12 15 50 15 39 0 50 -4 50 -16 0 -8 5 -12 10 -9 6 4 8 11 5 16
-4 5 48 10 127 11 73 1 112 3 86 5 -34 3 -48 8 -48 19 0 7 -4 14 -10 14 -5 0
-10 -7 -10 -15z"/>
<path d="M346 58 c7 -10 104 -11 104 0 0 4 -24 7 -54 7 -30 1 -52 -3 -50 -7z"/>
<path d="M650 45 c-7 -9 -10 -19 -6 -22 4 -4 11 -1 16 7 8 12 10 10 11 -10 1
-21 2 -22 6 -5 3 11 10 26 15 33 8 9 5 12 -10 12 -11 0 -25 -7 -32 -15z"/>
<path d="M1578 53 c18 -2 45 -2 60 0 15 2 0 4 -33 4 -33 0 -45 -2 -27 -4z"/>
<path d="M1676 44 c-3 -7 0 -17 6 -20 7 -4 14 -2 16 4 5 15 92 16 92 2 0 -5 5
-10 10 -10 6 0 10 7 10 15 0 22 86 21 94 -1 5 -14 8 -14 28 0 25 18 93 22 103
6 3 -5 13 -10 21 -10 9 0 12 5 8 11 -5 9 9 10 52 4 32 -4 61 -11 62 -16 6 -14
16 -11 28 9 11 17 -2 18 -257 19 -216 0 -269 -2 -273 -13z"/>
<path d="M2558 53 c23 -2 59 -2 80 0 20 2 1 4 -43 4 -44 0 -61 -2 -37 -4z"/>
<path d="M2260 43 c19 -3 39 -9 45 -14 14 -14 25 -11 25 6 0 12 -12 15 -52 13
-41 -1 -45 -2 -18 -5z"/>
</g>
</svg>
