<svg xmlns="http://www.w3.org/2000/svg" xmlns:xlink="http://www.w3.org/1999/xlink" id="Layer_1" viewBox="0 0 1060 200"><defs><style>      .st0 {        fill: none;      }      .st1 {        fill: url(#linear-gradient2);      }      .st2 {        fill: url(#linear-gradient1);      }      .st3 {        fill: url(#linear-gradient3);      }      .st4 {        fill: url(#linear-gradient6);      }      .st5 {        fill: url(#linear-gradient8);      }      .st6 {        fill: url(#linear-gradient7);      }      .st7 {        fill: url(#linear-gradient5);      }      .st8 {        fill: url(#linear-gradient4);      }      .st9 {        fill: url(#linear-gradient);      }      .st10 {        fill: #151934;      }      .st11 {        clip-path: url(#clippath);      }    </style><clipPath id="clippath"><rect class="st0" width="1060" height="200"></rect></clipPath><linearGradient id="linear-gradient" x1="709.7" y1="149.3" x2="898" y2="31.2" gradientTransform="translate(0 202) scale(1 -1)" gradientUnits="userSpaceOnUse"><stop offset="0" stop-color="#00aeef"></stop><stop offset="0" stop-color="#03a6e9"></stop><stop offset=".2" stop-color="#1082ce"></stop><stop offset=".3" stop-color="#1b65b8"></stop><stop offset=".4" stop-color="#234ea7"></stop><stop offset=".6" stop-color="#293e9b"></stop><stop offset=".8" stop-color="#2d3494"></stop><stop offset="1" stop-color="#2e3192"></stop></linearGradient><linearGradient id="linear-gradient1" x1="730.8" y1="183.1" x2="919.2" y2="65" gradientTransform="translate(0 202) scale(1 -1)" gradientUnits="userSpaceOnUse"><stop offset="0" stop-color="#00aeef"></stop><stop offset="0" stop-color="#03a6e9"></stop><stop offset=".2" stop-color="#1082ce"></stop><stop offset=".3" stop-color="#1b65b8"></stop><stop offset=".4" stop-color="#234ea7"></stop><stop offset=".6" stop-color="#293e9b"></stop><stop offset=".8" stop-color="#2d3494"></stop><stop offset="1" stop-color="#2e3192"></stop></linearGradient><linearGradient id="linear-gradient2" x1="34.3" y1="90" x2="65.2" y2="30" gradientTransform="translate(0 202) scale(1 -1)" gradientUnits="userSpaceOnUse"><stop offset="0" stop-color="#2e3192"></stop><stop offset=".2" stop-color="#2d3494"></stop><stop offset=".4" stop-color="#293e9b"></stop><stop offset=".6" stop-color="#234ea7"></stop><stop offset=".7" stop-color="#1b65b8"></stop><stop offset=".8" stop-color="#1082ce"></stop><stop offset="1" stop-color="#03a6e9"></stop><stop offset="1" stop-color="#00aeef"></stop></linearGradient><linearGradient id="linear-gradient3" x1="46.3" y1="160.6" x2="66.1" y2="122.2" gradientTransform="translate(0 202) scale(1 -1)" gradientUnits="userSpaceOnUse"><stop offset="0" stop-color="#2e3192"></stop><stop offset=".2" stop-color="#2d3494"></stop><stop offset=".4" stop-color="#293e9b"></stop><stop offset=".6" stop-color="#234ea7"></stop><stop offset=".7" stop-color="#1b65b8"></stop><stop offset=".8" stop-color="#1082ce"></stop><stop offset="1" stop-color="#03a6e9"></stop><stop offset="1" stop-color="#00aeef"></stop></linearGradient><linearGradient id="linear-gradient4" x1="28" y1="110.6" x2="89.4" y2="199.1" gradientTransform="translate(0 202) scale(1 -1)" gradientUnits="userSpaceOnUse"><stop offset="0" stop-color="#00aeef"></stop><stop offset="0" stop-color="#03a6e9"></stop><stop offset=".2" stop-color="#1082ce"></stop><stop offset=".3" stop-color="#1b65b8"></stop><stop offset=".4" stop-color="#234ea7"></stop><stop offset=".6" stop-color="#293e9b"></stop><stop offset=".8" stop-color="#2d3494"></stop><stop offset="1" stop-color="#2e3192"></stop></linearGradient><linearGradient id="linear-gradient5" x1="124.1" y1="146.6" x2="160.7" y2="48.1" gradientTransform="translate(0 202) scale(1 -1)" gradientUnits="userSpaceOnUse"><stop offset="0" stop-color="#2e3192"></stop><stop offset="0" stop-color="#2a3b9a"></stop><stop offset=".4" stop-color="#186cbe"></stop><stop offset=".6" stop-color="#0b90d9"></stop><stop offset=".9" stop-color="#03a6e9"></stop><stop offset="1" stop-color="#00aeef"></stop></linearGradient><linearGradient id="linear-gradient6" x1="123.3" y1="13.8" x2="181.8" y2="97.8" gradientTransform="translate(0 202) scale(1 -1)" gradientUnits="userSpaceOnUse"><stop offset="0" stop-color="#00aeef"></stop><stop offset=".1" stop-color="#03a6e9"></stop><stop offset=".4" stop-color="#0b90d9"></stop><stop offset=".6" stop-color="#186cbe"></stop><stop offset=".9" stop-color="#2a3b9a"></stop><stop offset="1" stop-color="#2e3192"></stop></linearGradient><linearGradient id="linear-gradient7" x1="131.9" y1="162.4" x2="46.3" y2="-48.5" gradientTransform="translate(0 202) scale(1 -1)" gradientUnits="userSpaceOnUse"><stop offset="0" stop-color="#00aeef"></stop><stop offset="0" stop-color="#03a6e9"></stop><stop offset=".2" stop-color="#1082ce"></stop><stop offset=".3" stop-color="#1b65b8"></stop><stop offset=".4" stop-color="#234ea7"></stop><stop offset=".6" stop-color="#293e9b"></stop><stop offset=".8" stop-color="#2d3494"></stop><stop offset="1" stop-color="#2e3192"></stop></linearGradient><linearGradient id="linear-gradient8" x1="130.1" y1="166.8" x2="44.6" y2="-44" gradientTransform="translate(0 202) scale(1 -1)" gradientUnits="userSpaceOnUse"><stop offset="0" stop-color="#00aeef"></stop><stop offset="0" stop-color="#03a6e9"></stop><stop offset=".2" stop-color="#1082ce"></stop><stop offset=".3" stop-color="#1b65b8"></stop><stop offset=".4" stop-color="#234ea7"></stop><stop offset=".6" stop-color="#293e9b"></stop><stop offset=".8" stop-color="#2d3494"></stop><stop offset="1" stop-color="#2e3192"></stop></linearGradient></defs><g class="st11"><g><path class="st10" d="M259,102.1l20.9-69.5h21.2l-32.2,92.4h-19.9l-32.1-92.4h21.1l20.8,69.5Z"></path><path class="st10" d="M361.1,106h-33.4l-6.3,19h-20.2l34.4-92.4h17.6l34.6,92.4h-20.2l-6.4-19ZM332.9,90.6h23.1l-11.6-34.6-11.5,34.6Z"></path><path class="st10" d="M419.4,109.7h40.4v15.3h-59.5V32.6h19v77.1Z"></path><path class="st10" d="M546.5,80.9c0,9.1-1.6,17.1-4.8,23.9-2.9,6.5-7.7,12.1-13.8,15.9-6.2,3.6-13.3,5.6-20.5,5.6-7.2,0-14.3-1.9-20.6-5.5-6.1-3.8-11-9.3-14-15.8-3.4-7.4-5.1-15.4-5-23.6v-4.6c0-9.1,1.6-17.1,4.9-24,3-6.6,7.8-12.1,13.9-15.9,6.2-3.6,13.3-5.6,20.5-5.6s14.3,1.9,20.5,5.6c6.1,3.8,10.9,9.4,13.9,15.9,3.4,7.5,5.1,15.7,4.9,24v4.1ZM527.2,76.7c0-9.7-1.7-17.1-5.2-22.1-3.5-5-8.4-7.6-14.9-7.6-6.4,0-11.3,2.5-14.8,7.5-3.5,5-5.2,12.3-5.3,21.9v4.5c0,9.4,1.7,16.8,5.2,22,3.5,5.2,8.5,7.8,15,7.8s11.3-2.5,14.7-7.5c3.4-5,5.2-12.3,5.2-21.9v-4.5Z"></path><path class="st10" d="M634.2,32.6v60.9c0,10.1-3.2,18.1-9.5,24-6.3,5.9-15,8.8-25.9,8.8s-19.4-2.9-25.7-8.6c-6.3-5.7-9.6-13.6-9.7-23.5v-61.6h19v61c0,6.1,1.4,10.5,4.3,13.2,2.9,2.8,6.9,4.2,12,4.2,10.7,0,16.1-5.6,16.3-16.9v-61.5h19.1Z"></path><path class="st10" d="M687.9,91.2h-15.2v33.8h-19V32.6h34.3c10.9,0,19.3,2.4,25.3,7.3,5.9,4.9,8.9,11.7,8.9,20.6s-1.4,11.6-4.1,15.8c-2.7,4.2-6.9,7.6-12.4,10.1l20,37.8v.9h-20.4l-17.3-33.8ZM672.7,75.8h15.4c4.8,0,8.5-1.2,11.1-3.7,2.6-2.4,3.9-5.8,3.9-10.1,0-4.4-1.2-7.8-3.7-10.3-2.5-2.5-6.3-3.7-11.4-3.7h-15.3v27.7Z"></path><path class="st9" d="M760.8,125h-19V32.6h19v92.4Z"></path><path class="st2" d="M850.1,48h-28.3v77h-19V48h-27.9v-15.4h75.3v15.4Z"></path><path class="st10" d="M940,125h-19v-39.6h-37.1v39.6h-19V32.6h19v37.5h37.1v-37.5h19v92.4Z"></path><path class="st10" d="M985.5,32.6l23.7,67,23.6-67h25v92.4h-19.1v-25.3l1.9-43.6-25,68.9h-13.1l-24.9-68.8,1.9,43.5v25.3h-19V32.6h24.9Z"></path><path class="st1" d="M87.8,160c4.5,5.5.5,13.5-6.7,13.8-.2,0-.3,0-.5,0h-21.4S3.4,107.9,3.4,107.9c-.5-.6-.9-1.3-1.3-2h41.6l27.6,33.9,16.5,20.2Z"></path><path class="st3" d="M42.9,98.8H2.6c.3-.6.8-1.2,1.3-1.7L98.2.1l-55.4,98.7Z"></path><path class="st8" d="M98.1,0l-55.1,98.8h0s-40.3,0-40.3,0c.3-.6.8-1.2,1.3-1.7L98.1,0Z"></path><path class="st7" d="M202.1,102.3c-.1.9-.5,1.7-1.1,2.4l-84.2,95.2,46.7-97.7L121,30.4c-3-5,.9-11.2,7-11.2h27l46.6,80.4c.5.8.7,1.8.6,2.8Z"></path><path class="st4" d="M202.1,102.3c-.1.9-.5,1.7-1.1,2.4l-84.2,95.2,46.7-97.7h38.6Z"></path><path class="st6" d="M83.5,105.9h40.2l-22.5,62.1c-.7,1.7-1.8,3.2-3.4,4.3-1.5,1-3.4,1.6-5.2,1.6h-33.4l12.1-34,12.1-33.9Z"></path><path class="st5" d="M155,19.2l-28.8,79.6h-40.2l26.6-74.5c.6-1.5,1.6-2.8,3-3.8s3-1.4,4.6-1.4h34.9Z"></path><path class="st10" d="M270.7,151.3h-8.9v22.5h-6v-22.5h-8.7v-4.5h23.5v4.5Z"></path><path class="st10" d="M338.2,162.1h-11.4v7.2h13.4v4.5h-19.4v-27h19.3v4.5h-13.4v6.4h11.4v4.4Z"></path><path class="st10" d="M413.2,164.8c0,1.3-.4,2.6-1,3.8-.6,1.2-1.4,2.2-2.5,3.1-2.4,1.8-5.3,2.6-8.2,2.5-1.6,0-3.2-.2-4.8-.8-1.5-.6-2.9-1.5-4-2.7-2.1-2.3-3.2-5.5-3.2-9.6v-1.7c0-2.4.5-4.7,1.5-6.9.9-1.9,2.4-3.5,4.2-4.6,2.3-1.2,4.8-1.7,7.3-1.6s5,1,7.1,2.5c1,.9,1.9,1.9,2.5,3.2.6,1.2,1,2.5,1,3.9h-6c0-1.4-.6-2.8-1.6-3.8-1.2-.9-2.6-1.3-4.1-1.2-.9,0-1.7,0-2.5.4-.8.3-1.5.9-2,1.6-1,1.3-1.5,3.4-1.5,6.2v2c0,2.9.5,5.1,1.4,6.4.5.7,1.2,1.2,2,1.6.8.4,1.6.5,2.5.4,1.5.1,2.9-.3,4.1-1.2.5-.5.9-1,1.1-1.7.3-.6.4-1.3.4-2h6Z"></path><path class="st10" d="M487.4,173.8h-6v-11.6h-11.6v11.6h-6v-27h6v10.9h11.6v-10.9h6v27Z"></path><path class="st10" d="M562.8,173.8h-6l-11.6-17.8v17.8h-6v-27h6l11.6,17.8v-17.8h5.9v27Z"></path><path class="st10" d="M638.5,160.9c0,2.4-.5,4.8-1.5,7-.9,1.9-2.5,3.6-4.3,4.6-2,1.1-4.2,1.6-6.4,1.6-2.2,0-4.5-.6-6.4-1.6-1.9-1.1-3.4-2.7-4.4-4.6-1.1-2.1-1.6-4.5-1.6-6.9v-1.3c0-2.4.5-4.8,1.5-7,1-1.9,2.5-3.6,4.3-4.7,2-1.1,4.2-1.6,6.4-1.6s4.4.6,6.4,1.6c1.9,1.1,3.4,2.7,4.3,4.7,1.1,2.2,1.6,4.6,1.5,7v1.2ZM632.5,159.7c0-2.8-.5-5-1.6-6.5-.6-.7-1.3-1.2-2.1-1.6-.8-.4-1.7-.6-2.6-.6-.9,0-1.8.2-2.6.6-.8.4-1.5.9-2.1,1.6-1.1,1.5-1.6,3.6-1.6,6.4v1.3c-.1,2.3.4,4.5,1.6,6.4.5.7,1.3,1.3,2.1,1.7s1.7.6,2.6.6c.9,0,1.8-.2,2.6-.6.8-.4,1.5-.9,2.1-1.6,1.1-1.5,1.6-3.6,1.6-6.4v-1.3Z"></path><path class="st10" d="M695.6,169.4h12.6v4.5h-18.6v-27h6v22.5Z"></path><path class="st10" d="M780.9,160.9c0,2.4-.5,4.8-1.5,7-.9,1.9-2.5,3.6-4.3,4.6-2,1.1-4.2,1.6-6.4,1.6-2.2,0-4.5-.6-6.4-1.6-1.9-1.1-3.4-2.7-4.4-4.6-1.1-2.1-1.6-4.5-1.6-6.9v-1.3c0-2.4.5-4.8,1.5-7,1-1.9,2.5-3.6,4.3-4.7,2-1.1,4.2-1.6,6.4-1.6s4.4.6,6.4,1.6c1.9,1.1,3.4,2.7,4.3,4.7,1.1,2.2,1.6,4.6,1.5,7v1.2ZM774.8,159.7c0-2.8-.5-5-1.6-6.5-.6-.7-1.3-1.2-2.1-1.6-.8-.4-1.7-.6-2.6-.6-.9,0-1.8.2-2.6.6-.8.4-1.5.9-2.1,1.6-1.1,1.5-1.6,3.6-1.6,6.4v1.3c-.1,2.3.4,4.5,1.6,6.4.5.7,1.3,1.3,2.1,1.7.8.4,1.7.6,2.6.6.9,0,1.8-.2,2.6-.6.8-.4,1.5-.9,2.1-1.6,1.1-1.5,1.6-3.6,1.6-6.4v-1.3Z"></path><path class="st10" d="M854.8,170.4c-1.2,1.3-2.8,2.3-4.5,2.8-2.1.7-4.3,1-6.5,1-2.3,0-4.6-.5-6.6-1.5-1.9-1-3.4-2.6-4.4-4.4-1.1-2.1-1.6-4.5-1.6-6.8v-1.8c0-2.4.4-4.8,1.5-7,.9-1.9,2.4-3.5,4.2-4.5,2-1.1,4.2-1.6,6.4-1.6,3.4,0,6.1.8,8,2.3,1,.8,1.8,1.8,2.4,3,.6,1.1.9,2.4,1,3.7h-5.8c-.1-1.3-.8-2.5-1.8-3.4-1.1-.8-2.4-1.2-3.7-1.1-.9,0-1.8.1-2.6.5-.8.4-1.5.9-2,1.6-1.1,1.4-1.6,3.5-1.6,6.3v1.7c0,2.8.6,5,1.7,6.4.6.7,1.4,1.3,2.3,1.7.9.4,1.8.5,2.8.5,2.2,0,3.8-.4,4.8-1.3v-4.7h-5.4v-4.1h11.4v10.8Z"></path><path class="st10" d="M912.7,173.8h-6v-27h6v27Z"></path><path class="st10" d="M982.4,162.1h-11.4v7.2h13.4v4.5h-19.4v-27h19.3v4.5h-13.4v6.4h11.4v4.4Z"></path><path class="st10" d="M1049.7,166.7c0-.5,0-.9-.3-1.4-.2-.4-.5-.8-.9-1.1-1.3-.8-2.8-1.4-4.3-1.8-1.7-.5-3.3-1.1-4.9-1.8-3.3-1.7-4.9-3.9-4.9-6.7,0-1.4.5-2.8,1.3-3.9,1-1.2,2.3-2.2,3.8-2.7,1.8-.7,3.7-1,5.6-1,1.9,0,3.8.3,5.5,1,1.5.6,2.8,1.6,3.8,3,.9,1.3,1.4,2.8,1.3,4.3h-5.9c0-.5,0-1.1-.3-1.6-.2-.5-.6-.9-1-1.3-1-.7-2.3-1.1-3.5-1-1.2,0-2.4.2-3.4.9-.4.2-.7.6-.9,1-.2.4-.3.8-.3,1.3,0,.5.1.9.4,1.3.2.4.6.7,1,.9,1.3.7,2.7,1.3,4.2,1.7,2.7.6,5.2,1.8,7.4,3.5.8.7,1.3,1.5,1.7,2.4.4.9.6,1.9.6,2.9,0,1.1-.2,2.2-.7,3.1-.5,1-1.2,1.8-2.1,2.4-2.3,1.4-5,2.1-7.6,2-2.1,0-4.2-.4-6.1-1.1-1.7-.6-3.1-1.7-4.2-3.1-1-1.3-1.5-3-1.4-4.6h6c0,3,1.9,4.5,5.7,4.5,1.2,0,2.3-.2,3.3-.8.4-.2.7-.6.9-1,.2-.4.3-.8.3-1.3Z"></path><path class="st10" d="M1048,2c5.5,0,10,4.5,10,10s-4.5,10-10,10-10-4.5-10-10,4.5-10,10-10ZM1048,4c-4.4,0-8,3.6-8,8s3.6,8,8,8,8-3.6,8-8-3.6-8-8-8ZM1048.5,7c1.9,0,3.5,1.6,3.5,3.5s-.7,2.4-1.7,3l2.6,3.5h-2.5l-2.2-3h-2.2v3h-2V7h4.5ZM1048.5,9h-2.5v3h2.5c.8,0,1.4-.6,1.5-1.4h0c0-1-.7-1.6-1.5-1.6Z"></path></g></g></svg>